<svg id="Capa_1" enable-background="new 0 0 511.871 511.871" height="512" viewBox="0 0 511.871 511.871" width="512" xmlns="http://www.w3.org/2000/svg" xmlns:xlink="http://www.w3.org/1999/xlink"><linearGradient id="SVGID_1_" gradientUnits="userSpaceOnUse" x1="229.385" x2="229.385" y1="511.871" y2="84.179"><stop offset="0" stop-color="#fd3a84"/><stop offset="1" stop-color="#ffa68d"/></linearGradient><linearGradient id="SVGID_2_" gradientUnits="userSpaceOnUse" x1="376.861" x2="376.861" y1="270.016" y2="0"><stop offset="0" stop-color="#ffc2cc"/><stop offset="1" stop-color="#fff2f4"/></linearGradient><g><g><g><path d="m278.761 103.801v60h180v-60zm128.892 284.917-76.377-50.933c-17.754-11.821-41.646-9.463-56.763 5.64l-20.098 20.083c-11.792-1.699-39.829-8.716-68.584-37.471s-35.771-56.792-37.471-68.584l20.083-20.098c15.103-15.103 17.476-38.979 5.625-56.777l-50.918-76.362c-7.515-11.265-19.541-18.486-33.018-19.819-13.477-1.318-26.675 3.398-36.24 12.964l-31.831 31.816c-15.16 15.161-23.158 35.874-21.927 56.836 2.402 40.811 20.083 122.915 111.445 214.277 91.377 91.362 173.467 109.043 214.277 111.445 20.525 1.283 41.482-6.558 56.821-21.929l31.831-31.831c9.565-9.565 14.297-22.778 12.964-36.24-1.332-13.476-8.554-25.502-19.819-33.017z" fill="url(#SVGID_1_)"/></g></g><g><g><path d="m376.861 0c-74.401 0-135 60.3-135 135 0 23.101 5.999 45.601 17.399 65.7l-16.5 49.501c-1.8 5.4-.3 11.4 3.6 15.3 4.453 4.005 9.989 5.72 15.3 3.6l49.501-16.501c20.099 11.4 42.6 17.401 65.7 17.401 74.7 0 135-60.601 135-135 0-74.701-60.3-135.001-135-135.001zm-60 150c-8.101 0-15-6.899-15-15 0-8.399 6.899-15 15-15 8.399 0 15 6.601 15 15 0 8.101-6.601 15-15 15zm60 0c-8.101 0-15-6.899-15-15 0-8.399 6.899-15 15-15 8.399 0 15 6.601 15 15 0 8.101-6.601 15-15 15zm60 0c-8.101 0-15-6.899-15-15 0-8.399 6.899-15 15-15 8.399 0 15 6.601 15 15 0 8.101-6.601 15-15 15z" fill="url(#SVGID_2_)"/></g></g></g></svg>